<?xml version="1.0" encoding="UTF-8" standalone="no"?>
<svg
   version="1.0"
   width="443.99304pt"
   height="386.47772pt"
   viewBox="0 0 443.99304 386.47772"
   preserveAspectRatio="xMidYMid"
   id="svg51"
   xmlns="http://www.w3.org/2000/svg"
   xmlns:svg="http://www.w3.org/2000/svg">
  <defs
     id="defs51" />
  <metadata
     id="metadata1">
Created by potrace 1.16, written by Peter Selinger 2001-2019
</metadata>
  <g
     transform="matrix(0.1,0,0,-0.1,-32.8,456.8636)"
     fill="#000000"
     stroke="none"
     id="g51">
    <path
       d="m 2245,4555 c -418,-66 -767,-327 -911,-679 -18,-45 -37,-81 -41,-81 -4,1 -33,7 -65,14 -98,24 -189,-12 -228,-89 -26,-50 -26,-102 -1,-124 19,-18 19,-17 9,18 -10,31 -8,41 13,82 43,84 143,115 243,75 l 28,-11 -7,-73 c -4,-39 -5,-70 -2,-67 3,3 18,50 32,105 119,449 536,773 1045,811 163,12 394,-31 560,-105 231,-101 450,-300 549,-498 62,-123 111,-305 111,-411 1,-47 3,-54 12,-38 13,23 4,154 -17,246 -61,259 -225,478 -483,645 -245,157 -564,225 -847,180 z"
       id="path1" />
    <path
       d="m 4114,4286 c -86,-37 -121,-163 -70,-250 51,-87 160,-109 248,-51 142,94 74,315 -97,314 -27,0 -64,-6 -81,-13 z m 156,-35 c 37,-26 70,-80 70,-113 0,-44 -29,-98 -64,-119 -44,-27 -56,-24 -15,4 18,12 39,34 46,47 16,32 17,111 0,134 -10,14 -12,7 -12,-48 0,-55 -4,-68 -25,-91 -25,-28 -77,-55 -104,-55 -25,0 -66,43 -81,85 -11,32 -15,36 -21,22 -10,-27 21,-84 58,-107 18,-11 27,-20 20,-20 -25,0 -83,65 -92,103 -28,129 116,232 220,158 z"
       id="path2" />
    <path
       d="m 2376,4244 c -104,-25 -184,-72 -266,-154 -90,-90 -180,-236 -180,-294 0,-91 -118,-323 -231,-456 -45,-52 -99,-121 -121,-153 l -39,-58 -22,33 c -30,45 -82,70 -130,64 -21,-2 -66,-22 -100,-44 -34,-22 -96,-57 -137,-78 -41,-22 -96,-60 -122,-86 -51,-50 -63,-44 -25,13 16,25 55,51 152,102 114,59 136,75 180,129 70,84 102,135 124,193 36,98 36,95 -1,95 -58,0 -169,-29 -235,-59 -110,-52 -205,-167 -235,-288 -12,-46 -13,-41 -13,96 0,139 -1,149 -27,201 -15,30 -48,78 -73,105 l -46,50 5,-133 5,-133 -28,38 c -80,110 -188,173 -311,181 l -75,5 46,-42 c 34,-30 54,-59 74,-108 37,-94 91,-162 172,-215 73,-49 136,-108 98,-93 -80,32 -105,37 -170,33 -97,-5 -153,-34 -244,-127 l -73,-76 78,-6 c 53,-4 96,-14 129,-30 45,-22 62,-24 169,-22 98,1 126,-1 155,-16 l 35,-19 -89,-7 c -50,-4 -107,-10 -127,-14 l -37,-6 40,-52 40,-52 -28,-7 c -67,-16 -251,-130 -253,-156 0,-3 16,-1 35,5 26,7 53,7 99,-1 35,-7 68,-12 75,-12 6,0 26,31 46,69 19,38 39,72 44,75 5,4 12,-7 15,-24 18,-93 19,-87 -11,-94 -41,-9 -70,-33 -55,-48 8,-8 17,-7 36,6 14,9 29,16 34,16 27,0 192,-197 192,-229 0,-17 -6,-14 -57,26 -80,61 -128,78 -218,78 -94,0 -158,-26 -240,-99 -52,-45 -112,-122 -103,-132 11,-11 170,35 277,81 72,31 153,37 214,16 63,-21 29,-35 -99,-42 -101,-6 -121,-10 -179,-38 -112,-55 -188,-167 -202,-296 l -5,-50 32,43 c 38,50 47,54 20,9 -29,-49 -52,-162 -52,-262 -1,-115 15,-156 72,-185 26,-13 47,-33 57,-56 17,-36 40,-41 35,-8 -6,32 -31,63 -71,88 -47,30 -61,66 -61,155 0,123 35,233 95,306 l 17,20 -7,-20 c -13,-39 -17,-134 -10,-229 9,-125 26,-127 47,-6 18,100 42,156 92,215 l 34,39 -31,-64 c -30,-62 -32,-71 -32,-180 0,-95 4,-127 24,-185 128,-376 396,-569 980,-704 69,-16 146,-34 171,-40 l 45,-10 -55,5 c -30,3 -158,28 -284,55 -126,27 -231,47 -233,45 -6,-6 158,-63 244,-85 279,-72 1012,-118 1458,-92 362,20 629,65 870,146 186,62 270,102 256,119 -9,11 1,21 51,53 211,133 321,264 389,460 30,89 33,109 33,213 1,97 -3,124 -23,173 -28,71 -111,163 -178,197 -26,14 -67,42 -91,63 -41,36 -153,97 -179,97 -9,0 -9,8 -1,31 10,29 13,30 47,24 61,-11 223,-75 285,-113 80,-48 160,-130 198,-205 25,-49 32,-76 35,-132 1,-38 5,-91 9,-117 5,-36 3,-54 -11,-74 -19,-30 -15,-39 14,-29 28,8 30,22 32,170 2,118 0,134 -20,175 -74,144 -250,269 -473,335 -80,24 -98,33 -98,48 0,30 58,16 172,-43 101,-52 130,-53 56,-2 -57,39 -133,77 -185,92 -35,11 -43,18 -43,37 0,28 -36,107 -56,124 -8,7 -14,30 -14,59 v 48 l 38,-9 c 72,-19 238,-108 303,-162 38,-32 85,-84 111,-124 43,-66 88,-162 88,-189 0,-7 5,-16 12,-20 21,-13 -2,79 -40,156 -28,57 -57,96 -122,160 -96,96 -174,145 -302,191 l -88,32 v 38 c 0,38 -21,71 -51,81 -19,6 28,156 52,169 32,17 51,0 44,-37 -7,-40 1,-45 16,-8 14,37 -13,78 -46,70 l -23,-6 32,100 c 17,55 34,100 37,100 17,0 124,-124 151,-175 19,-38 28,-49 23,-30 -10,48 -54,116 -111,172 -52,52 -52,52 -20,46 17,-3 48,-12 69,-19 48,-17 47,-10 -2,16 -52,26 -121,37 -121,20 0,-8 -2,-11 -5,-8 -3,2 0,19 6,37 9,24 14,29 20,19 6,-9 9,-3 9,18 0,36 20,56 163,167 85,67 102,93 75,115 -25,20 -109,42 -186,48 l -79,7 -21,96 c -27,118 -48,152 -115,185 -85,43 -186,28 -246,-37 -31,-34 -18,-53 14,-21 81,80 235,68 288,-24 l 19,-32 h -26 c -31,0 -32,-6 -6,-94 11,-38 18,-71 17,-73 -2,-1 -28,-7 -57,-13 -57,-11 -100,-33 -100,-52 0,-6 30,-38 67,-72 176,-162 172,-155 151,-213 -11,-31 -15,-33 -43,-27 -16,4 -73,7 -125,7 -75,-1 -111,-6 -175,-28 -82,-27 -158,-69 -191,-106 -11,-13 6,-5 43,18 101,65 186,88 330,88 67,0 125,-3 128,-7 4,-4 -22,-92 -57,-195 -53,-152 -69,-189 -85,-191 -11,-2 -26,4 -33,13 -7,8 -28,15 -46,15 -29,0 -36,5 -48,35 -41,98 -194,74 -227,-36 -10,-33 -18,-41 -50,-49 -42,-12 -49,-19 -58,-64 l -7,-30 -34,35 c -29,29 -140,217 -140,236 0,3 12,2 28,-1 21,-5 3,17 -85,101 -61,60 -116,118 -122,130 -20,40 -12,83 31,166 38,73 43,91 46,164 3,70 6,81 20,75 12,-4 10,2 -7,26 -12,18 -20,36 -17,40 3,5 -3,16 -14,24 -10,9 -24,43 -30,75 -18,88 -50,139 -141,234 -92,94 -163,140 -254,164 -73,19 -219,18 -299,-1 z m 244,-34 c 0,-6 11,-8 25,-4 16,4 25,2 25,-6 0,-6 4,-8 10,-5 21,13 176,-77 218,-128 12,-13 8,-15 -27,-10 -29,4 -48,1 -67,-12 -34,-22 -27,-27 19,-13 71,22 164,-37 183,-117 6,-29 5,-28 -25,13 -37,50 -62,54 -127,16 -43,-25 -55,-46 -34,-59 25,-16 7,-26 -34,-20 -80,12 -146,-25 -146,-83 0,-64 70,-132 136,-132 40,0 24,-9 -42,-25 -113,-25 -156,-27 -194,-7 -19,10 -34,23 -33,30 2,8 -8,6 -32,-5 -19,-9 -35,-22 -35,-29 0,-18 182,-134 236,-150 87,-26 162,-13 220,38 43,38 85,117 77,147 -5,18 -1,21 27,21 23,0 33,5 37,20 6,22 18,18 34,-12 9,-16 8,-19 -2,-13 -8,6 -10,4 -3,-6 9,-15 7,-65 -3,-114 l -7,-30 -6,30 -7,30 -13,-32 c -6,-18 -16,-30 -21,-27 -5,3 -9,-5 -9,-16 0,-12 -9,-33 -20,-47 l -20,-26 6,34 6,34 -27,-45 c -29,-49 -41,-64 -33,-40 23,66 23,66 -23,26 -53,-45 -130,-69 -207,-65 -41,2 -64,-1 -83,-14 -32,-22 -125,-39 -164,-31 -16,3 -38,13 -47,22 -14,12 -18,12 -18,2 0,-8 -10,-4 -26,11 l -27,24 6,-30 5,-30 -24,30 c -13,17 -24,34 -24,39 0,4 -6,6 -14,3 -14,-6 -35,30 -37,61 0,9 -7,1 -14,-18 -13,-35 -13,-35 -15,35 0,59 -2,67 -13,50 -6,-11 -14,-45 -17,-75 -5,-53 -6,-54 -19,-30 -8,14 -20,45 -26,70 l -12,45 -10,-35 -10,-35 -13,54 c -15,62 -8,151 14,182 15,22 64,59 79,59 8,0 -22,-63 -46,-95 -14,-19 -15,-18 -11,10 l 4,30 -15,-33 c -9,-18 -13,-43 -9,-57 6,-25 7,-24 35,15 16,21 41,46 56,54 l 28,14 v -37 -36 l 49,-3 c 63,-4 127,20 179,67 47,43 147,191 147,219 0,22 -59,78 -97,93 -38,14 -80,11 -121,-10 -46,-24 -72,-52 -107,-118 -22,-42 -38,-57 -86,-83 -67,-35 -124,-98 -141,-152 -17,-58 4,-133 61,-220 56,-86 102,-129 236,-225 112,-79 127,-94 150,-143 l 16,-35 -7,45 c -3,25 -12,59 -19,77 l -14,32 56,-44 c 31,-24 61,-41 67,-38 6,3 8,3 4,-1 -3,-4 0,-15 8,-24 7,-10 20,-26 28,-37 15,-20 15,-19 16,5 1,35 33,101 60,125 l 24,20 -24,-35 c -15,-23 9,-5 66,50 86,83 90,79 9,-9 -29,-31 -34,-40 -17,-31 33,16 169,147 204,194 34,48 35,43 3,-30 -30,-69 -31,-72 -3,-48 18,16 17,10 -10,-40 -24,-44 -27,-54 -12,-41 19,17 20,17 20,1 0,-30 -32,-160 -46,-188 -23,-44 -16,-44 27,-3 47,46 73,92 90,159 6,25 14,46 18,46 3,-1 38,-30 76,-66 51,-47 63,-62 43,-55 -36,13 -35,7 2,-36 32,-36 115,-192 107,-200 -3,-2 -22,25 -42,61 -37,67 -59,92 -29,34 33,-63 65,-109 73,-103 5,2 16,-7 25,-21 10,-14 31,-34 49,-44 25,-16 28,-20 12,-20 -11,1 -37,7 -57,14 -21,8 -35,10 -32,5 10,-16 79,-46 97,-41 10,2 17,-2 17,-12 0,-9 -6,-16 -12,-17 -10,0 -10,-2 0,-6 18,-7 15,-30 -5,-37 -13,-5 -14,-9 -5,-15 6,-4 15,-28 18,-54 6,-40 4,-47 -10,-47 -9,0 -40,-12 -68,-26 l -52,-27 25,34 c 45,60 44,63 -6,36 -26,-15 -50,-25 -52,-23 -2,2 8,27 22,56 14,29 25,54 23,55 -2,2 -23,-14 -46,-36 -43,-41 -52,-36 -32,15 12,33 -2,34 -20,1 -24,-44 -21,-20 5,50 14,37 24,69 22,71 -2,2 -14,-14 -26,-36 -12,-22 -23,-40 -24,-40 -1,0 -1,48 0,107 l 2,108 -23,-90 -23,-90 -1,87 c -1,130 -21,150 -23,23 l -1,-100 -14,59 c -13,53 -63,161 -70,153 -2,-2 1,-19 6,-38 6,-18 10,-50 10,-69 l -1,-35 -19,36 c -10,19 -26,42 -36,50 -13,11 -12,4 6,-31 13,-26 24,-67 25,-95 l 2,-51 -66,4 c -83,4 -123,17 -163,50 -33,28 -30,14 5,-25 17,-19 18,-23 5,-23 -24,0 -68,50 -68,78 0,23 -2,23 -29,-14 -15,-21 -38,-48 -50,-58 -22,-20 -22,-20 -15,0 4,10 15,30 24,44 34,51 32,54 -9,15 -22,-21 -41,-46 -41,-54 0,-8 -22,8 -51,37 -68,70 -98,87 -64,36 14,-20 25,-43 25,-51 0,-40 -47,-78 -117,-93 -32,-8 -32,-8 -16,16 9,14 13,27 10,30 -3,3 -13,-6 -23,-21 -9,-14 -25,-30 -36,-36 -18,-10 -19,-9 -3,20 l 15,31 -42,-29 c -24,-16 -54,-33 -68,-37 -23,-6 -22,-5 8,21 18,15 37,36 43,46 7,15 -3,12 -43,-14 -91,-57 -133,-81 -120,-67 18,21 15,32 -7,20 -29,-15 -30,-14 -25,43 5,48 4,50 -10,32 l -15,-20 4,20 c 10,55 13,95 6,95 -5,0 -12,-19 -16,-42 l -8,-43 -9,45 c -16,82 -38,145 -58,170 -19,24 -19,23 1,-24 24,-56 37,-172 28,-266 -6,-73 -6,-73 -19,67 -5,60 -16,114 -25,130 -9,16 -13,19 -9,8 3,-11 8,-56 10,-100 l 3,-80 -14,40 c -14,37 -15,30 -10,-110 l 5,-150 -36,58 c -21,31 -39,55 -41,53 -2,-2 12,-37 32,-77 40,-81 38,-81 -24,0 -48,61 -78,117 -97,176 -11,33 -13,36 -13,14 -1,-42 25,-106 72,-172 59,-85 64,-95 36,-72 -61,52 -57,42 6,-18 39,-36 66,-66 60,-66 -5,-1 -27,4 -48,10 -66,18 -52,3 23,-27 40,-15 93,-43 118,-60 l 45,-33 -62,-3 -62,-3 169,-68 c 176,-71 308,-139 364,-189 l 33,-29 -44,27 c -82,49 -185,94 -216,94 -23,0 -15,-6 38,-25 102,-35 173,-81 257,-165 110,-111 207,-264 243,-386 8,-28 29,-83 46,-122 31,-70 39,-112 22,-112 -5,0 -17,13 -28,29 -22,35 -153,175 -153,164 0,-9 41,-68 98,-143 19,-25 32,-55 32,-72 0,-38 -11,-35 -33,10 -20,43 -64,99 -71,91 -3,-3 4,-34 15,-69 11,-35 19,-73 17,-83 -6,-36 -55,18 -104,114 -55,106 -104,158 -226,241 -117,78 -221,178 -297,284 -33,48 -61,83 -61,79 0,-19 75,-144 113,-190 l 42,-50 -50,35 c -90,63 -187,170 -237,260 -50,88 -58,93 -33,19 13,-38 13,-42 0,-25 -8,11 -22,40 -31,65 -9,25 -20,55 -25,66 -13,31 1,-73 17,-120 14,-39 14,-39 -4,-17 -9,12 -44,69 -77,127 -32,57 -60,103 -62,101 -2,-2 10,-39 27,-82 16,-43 30,-81 30,-83 0,-12 -77,70 -115,124 -105,147 -139,255 -139,435 0,134 16,217 60,320 13,30 17,46 9,36 -23,-30 -74,-168 -91,-249 -20,-94 -21,-254 -1,-338 63,-263 260,-468 687,-714 205,-118 317,-193 348,-233 48,-62 45,-63 -15,-4 -67,66 -190,143 -421,265 -187,99 -285,164 -382,254 -89,83 -153,168 -201,268 -49,101 -70,184 -79,310 l -7,100 -3,-85 c -4,-109 -2,-145 12,-251 13,-104 7,-130 -15,-69 -15,40 -16,41 -11,10 4,-19 12,-53 20,-75 l 13,-40 -21,25 c -61,74 -101,201 -102,323 l -1,89 -13,-44 c -8,-23 -17,-92 -21,-153 l -7,-110 -8,61 c -13,103 18,241 106,477 8,20 18,34 23,30 4,-5 5,-2 1,5 -11,19 35,111 116,227 154,222 185,264 234,320 l 52,58 7,-34 c 9,-43 39,-101 60,-119 11,-9 9,-1 -7,26 -28,48 -31,149 -5,204 l 17,35 -6,-36 c -9,-58 37,-263 67,-293 5,-6 0,15 -10,45 -29,81 -41,190 -30,262 6,40 29,103 64,176 54,110 81,143 54,64 -16,-45 -17,-217 -2,-252 7,-18 8,-1 5,64 -5,86 11,211 30,248 7,14 16,17 34,13 20,-5 27,0 45,36 12,24 24,70 27,106 l 5,63 -37,-17 c -20,-10 -36,-21 -36,-26 0,-5 -18,-28 -40,-52 -22,-24 -40,-48 -40,-54 0,-23 18,-20 54,10 l 38,31 -16,-31 c -16,-31 -55,-50 -75,-37 -20,12 -11,51 19,80 17,16 30,32 30,37 0,4 15,32 34,61 74,116 226,218 353,236 85,12 203,13 203,1 z m -159,-310 c 29,-16 24,-31 -7,-20 -16,7 -32,7 -44,0 -31,-16 -37,-11 -11,10 27,23 35,24 62,10 z m 493,-8 c 3,-5 -8,-9 -25,-10 -16,0 -27,4 -24,9 8,11 42,12 49,1 z m -14,-42 c 0,-5 -2,-10 -4,-10 -3,0 -8,5 -11,10 -3,6 -1,10 4,10 6,0 11,-4 11,-10 z m -510,-40 c 34,-8 34,-8 5,-8 -16,-1 -41,6 -55,14 -16,10 -18,13 -5,8 11,-4 36,-10 55,-14 z m 464,12 c 2,-4 -13,-6 -35,-4 -21,2 -39,6 -39,8 0,7 69,4 74,-4 z m 1122,-88 c 28,-105 27,-94 11,-94 -15,0 -62,165 -51,181 10,16 14,7 40,-87 z m -1069,70 c -3,-3 -12,-4 -19,-1 -8,3 -5,6 6,6 11,1 17,-2 13,-5 z m -198,-70 c 3,-16 1,-17 -13,-5 -19,16 -21,34 -3,29 6,-3 14,-13 16,-24 z m 128,-6 c -3,-8 -6,-5 -6,6 -1,11 2,17 5,13 3,-3 4,-12 1,-19 z m 70,-45 c 7,-55 -13,-70 -69,-54 l -41,13 33,19 c 18,11 37,33 43,49 14,36 27,26 34,-27 z m 1018,-43 c -16,-4 -41,-8 -55,-8 -22,0 -22,1 5,8 17,4 41,8 55,8 22,0 22,-1 -5,-8 z m 278,-16 c 62,-21 54,-30 -9,-10 -27,8 -78,19 -114,25 l -65,10 70,-4 c 39,-2 92,-11 118,-21 z m -53,-21 c 57,-5 62,-7 40,-16 -39,-16 -258,-14 -305,3 l -40,15 45,6 c 45,6 141,3 260,-8 z m -1627,-29 c 31,-12 50,-12 100,-2 74,14 267,20 267,8 0,-12 -69,-70 -97,-81 -13,-5 -53,-9 -88,-9 -56,0 -74,5 -141,41 -83,43 -137,78 -99,64 11,-4 37,-14 58,-21 z m 1722,7 c -3,-5 -22,-15 -43,-23 -43,-15 -264,-17 -299,-2 -14,6 30,9 135,10 93,0 167,5 182,11 32,15 32,15 25,4 z M 640,3533 c 102,-49 196,-176 255,-344 25,-70 11,-53 -24,29 -65,155 -140,240 -266,305 -27,15 -57,31 -65,37 -26,20 39,2 100,-27 z m 255,-44 c 14,-44 26,-97 26,-117 1,-37 1,-37 9,-7 l 7,30 6,-35 c 9,-51 18,-294 11,-287 -18,17 -82,312 -88,400 -4,53 -4,97 -2,97 3,0 17,-36 31,-81 z m 3217,34 c 48,2 85,1 82,-4 -9,-15 -88,-57 -119,-63 -25,-5 -38,1 -80,39 l -50,44 40,-11 c 22,-6 79,-8 127,-5 z M 751,3381 c 47,-54 112,-168 123,-221 3,-14 -8,4 -26,39 -26,53 -33,61 -39,45 -4,-10 -8,-13 -8,-6 -1,6 -7,12 -15,12 -9,0 -23,25 -36,63 -11,34 -27,71 -35,81 -19,25 -19,19 0,-35 12,-34 13,-41 2,-29 -83,92 -147,169 -147,178 0,21 131,-71 181,-127 z m 689,134 c 0,-3 -19,-17 -42,-31 -24,-15 -46,-32 -50,-38 -4,-6 -8,-7 -8,-2 0,5 7,18 17,28 31,35 2,18 -34,-19 l -35,-38 7,30 c 9,41 16,47 82,61 32,7 59,13 61,13 1,1 2,-1 2,-4 z m -156,-62 c -3,-16 -7,-33 -9,-39 -2,-6 -21,-25 -43,-42 l -40,-32 23,57 c 31,75 83,116 69,56 z m 151,14 c -3,-6 -16,-19 -29,-27 -58,-36 -145,-101 -152,-112 -4,-7 1,-5 12,4 10,9 31,20 46,23 16,4 26,10 24,14 -3,3 14,17 36,30 l 40,23 -31,-46 c -36,-53 -47,-60 -81,-60 -22,1 -22,1 -2,-3 56,-11 -1,-51 -90,-62 -47,-6 -54,-9 -28,-11 l 35,-2 -47,-12 c -25,-6 -50,-14 -54,-18 -10,-11 27,-10 62,1 119,38 103,10 -26,-43 -49,-21 -92,-42 -96,-47 -3,-5 -10,-9 -15,-9 -22,0 28,49 51,50 23,1 23,2 5,10 -18,7 -10,18 70,97 84,83 245,213 266,213 4,0 6,-6 4,-13 z m -784,-87 c 21,-30 48,-68 60,-85 14,-19 3,-11 -30,20 -29,28 -64,72 -78,100 -33,63 -8,45 48,-35 z m 286,43 c -3,-10 -5,-4 -5,12 0,17 2,24 5,18 2,-7 2,-21 0,-30 z m 273,2 c -25,-66 -70,-136 -70,-108 0,33 26,92 48,110 34,28 34,28 22,-2 z m 2890,11 c 0,-2 -7,-7 -16,-10 -8,-3 -12,-2 -9,4 6,10 25,14 25,6 z m -2958,-53 c -5,-10 -12,-39 -16,-64 -4,-28 -15,-54 -28,-65 l -21,-19 5,47 c 4,30 15,61 32,83 29,37 43,46 28,18 z m -102,-194 -22,-34 6,30 c 4,17 12,44 19,60 l 12,30 3,-26 c 2,-15 -7,-42 -18,-60 z m 1969,-10 c 1,-48 -43,-154 -76,-181 -15,-12 -15,-11 0,18 8,16 26,78 39,137 23,108 36,117 37,26 z m 962,-130 c -44,-130 -73,-203 -81,-201 -8,2 -10,-3 -7,-13 4,-8 3,-15 -1,-15 -4,0 -17,-3 -29,-6 -19,-5 -23,-2 -23,17 0,39 14,53 39,40 26,-14 21,-24 106,222 32,92 59,166 61,164 2,-2 -27,-95 -65,-208 z m -2518,138 c 18,-8 38,-21 45,-30 12,-14 10,-15 -20,-7 -18,5 -58,12 -87,15 -50,7 -53,9 -36,21 24,18 57,18 98,1 z m -738,-38 c 66,-12 108,-31 143,-62 32,-30 27,-39 -11,-17 -47,28 -254,76 -217,51 8,-6 31,-11 50,-12 32,-1 30,-2 -20,-14 -30,-8 -74,-14 -96,-15 -23,0 -60,-7 -83,-15 -22,-8 -41,-13 -41,-11 0,12 94,74 135,88 60,21 65,21 140,7 z m 675,-13 35,-13 -30,-15 c -16,-8 -55,-18 -85,-22 -30,-3 -65,-9 -77,-12 -39,-11 -26,15 24,46 51,32 78,36 133,16 z m 1171,-13 c 13,-16 12,-17 -3,-4 -10,7 -18,15 -18,17 0,8 8,3 21,-13 z m -1043,-18 c 2,-2 -120,-181 -132,-193 -2,-1 -26,-8 -54,-16 l -51,-13 53,52 c 55,54 96,124 96,164 0,21 3,22 43,16 23,-4 43,-8 45,-10 z m -740,-35 c 36,-10 126,-59 120,-65 -2,-2 -28,7 -57,21 -29,14 -83,32 -119,39 -65,13 -66,13 -22,14 25,1 60,-3 78,-9 z m 422,-20 c 0,-14 -90,-40 -90,-27 -1,19 -38,-34 -49,-68 -5,-16 -12,-48 -16,-70 l -7,-40 -19,35 c -10,19 -18,41 -19,47 -1,41 161,163 187,141 7,-6 13,-14 13,-18 z m 151,-41 -41,-52 v 47 c 0,41 2,46 23,46 12,0 29,4 37,10 28,18 22,0 -19,-51 z m -610,27 c 88,-27 185,-91 211,-139 l 11,-21 -29,19 c -16,10 -46,29 -67,43 -33,22 -44,24 -94,18 -54,-6 -57,-6 -38,9 18,15 17,15 -12,0 -18,-8 -42,-15 -55,-15 -20,0 -19,3 15,31 51,42 39,49 -15,10 -40,-29 -98,-40 -98,-19 0,4 -3,7 -7,7 -33,-5 -33,4 -3,31 40,34 35,37 -18,12 -26,-12 -50,-16 -82,-12 l -45,5 45,17 c 25,9 52,19 60,22 25,10 172,-3 221,-18 z m 508,-3 c -8,-9 -38,-31 -66,-50 -53,-34 -76,-66 -99,-138 l -13,-40 v 35 c 0,19 8,55 19,79 11,24 20,49 20,57 0,8 8,14 18,14 9,1 42,14 72,30 64,35 67,36 49,13 z m 34,-71 -18,-27 -3,38 c -2,27 2,45 15,59 18,20 18,20 21,-12 2,-19 -4,-42 -15,-58 z m 2414,6 c 11,-13 24,-34 28,-47 7,-24 6,-23 -31,7 -45,38 -92,42 -119,12 -10,-11 -16,-22 -13,-25 3,-3 13,4 23,15 24,27 55,26 55,-1 0,-11 5,-17 10,-14 6,4 7,12 4,18 -4,7 6,0 22,-15 15,-15 26,-30 23,-32 -2,-3 -31,-1 -64,3 -59,9 -88,5 -48,-5 20,-6 20,-6 -4,-30 -34,-34 -53,-25 -53,27 0,87 113,146 167,87 z m -2472,-17 c 3,-6 -1,-25 -9,-43 -8,-18 -15,-27 -15,-20 -1,7 4,22 10,34 6,11 8,22 6,25 -11,10 -38,-60 -33,-83 6,-21 3,-24 -24,-24 -20,0 -30,5 -30,15 0,25 28,72 52,89 26,18 35,20 43,7 z m 2580,-96 c 0,-30 -4,-41 -17,-43 -11,-2 -18,3 -18,12 0,9 8,16 18,16 12,1 9,5 -10,16 -39,21 -35,48 7,42 16,-2 20,-10 20,-43 z m -2435,16 c 0,-8 -83,-31 -112,-31 -21,0 6,18 42,28 46,13 70,14 70,3 z m -396,-32 c 32,-25 34,-42 3,-30 -39,15 -157,25 -157,13 0,-6 19,-13 43,-16 23,-3 53,-7 67,-9 14,-2 0,-5 -32,-8 -31,-2 -54,-1 -51,4 2,4 -2,7 -9,7 -7,0 -29,10 -48,22 l -35,22 25,7 c 14,4 57,7 96,8 58,1 76,-3 98,-20 z m 2729,15 c 31,-6 37,-11 37,-30 0,-23 -3,-24 -64,-24 -71,0 -87,11 -60,41 18,21 29,22 87,13 z M 744,2832 c 6,-19 35,-38 71,-45 11,-3 1,-5 -23,-6 -35,-1 -48,5 -80,34 l -37,34 32,1 c 22,0 33,-6 37,-18 z m 2766,8 c 0,-5 -6,-10 -14,-10 -8,0 -22,-10 -30,-22 -12,-16 -19,-19 -27,-11 -14,14 -4,32 25,43 29,12 46,12 46,0 z m 445,-16 c 13,-13 13,-19 3,-31 -10,-13 -13,-12 -20,6 -4,12 -12,21 -18,21 -6,0 -8,5 -5,10 9,14 21,12 40,-6 z m -2620,-26 c -12,-40 -35,-69 -63,-79 -15,-6 -40,-17 -56,-25 -16,-8 -31,-13 -32,-11 -2,1 9,28 23,60 27,59 49,74 111,76 20,1 22,-3 17,-21 z m -157,-5 c 2,-9 -7,-13 -27,-13 -21,0 -31,5 -31,16 0,19 51,16 58,-3 z m 2342,-3 c -11,-21 -35,-27 -45,-11 -6,10 22,30 43,31 10,0 10,-5 2,-20 z m 53,-10 c -3,-13 -14,-20 -29,-20 -28,0 -29,3 -8,24 22,23 43,20 37,-4 z m 72,0 c 8,0 11,-7 8,-21 -5,-17 -11,-19 -37,-13 -17,3 -33,8 -35,10 -9,8 23,34 36,29 8,-3 21,-5 28,-5 z m 234,4 c 17,-4 31,-10 31,-14 0,-7 -92,-32 -96,-27 -1,1 -5,12 -8,25 -6,19 -4,22 17,22 14,0 39,-3 56,-6 z m -89,-24 c 10,-19 8,-20 -50,-20 -53,0 -60,2 -60,20 0,17 7,20 50,20 39,0 52,-4 60,-20 z m -2767,-6 c 10,-3 17,-15 17,-30 0,-29 3,-29 -55,-4 -48,20 -154,29 -125,10 8,-5 25,-10 38,-10 17,0 22,-6 22,-25 0,-28 20,-35 21,-7 1,25 38,-59 39,-88 0,-23 -1,-23 -31,13 -17,20 -62,55 -101,78 -38,23 -66,45 -61,50 21,21 175,30 236,13 z m 132,-31 c -7,-37 -12,-50 -18,-42 -1,2 -10,21 -20,42 l -17,37 h 31 c 31,0 31,-1 24,-37 z m 2390,10 c 109,-29 346,-17 393,20 21,16 26,1 24,-80 -3,-88 -27,-207 -47,-223 -10,-8 -9,6 5,62 25,100 34,184 21,193 -7,4 -11,-5 -11,-22 0,-34 -15,-55 -50,-70 l -25,-10 3,52 4,53 -44,-9 c -85,-16 -199,-10 -280,15 l -78,24 -11,-42 c -21,-71 -13,-139 30,-269 48,-147 57,-190 76,-377 18,-168 24,-180 103,-188 35,-3 62,1 95,16 51,23 48,15 85,227 15,90 19,100 40,103 28,4 26,-6 -24,-156 -44,-130 -49,-219 -17,-274 15,-25 18,-38 10,-41 -16,-5 -46,69 -46,116 l -1,38 -31,-23 c -40,-30 -148,-33 -176,-5 -17,16 -18,14 -30,-40 -15,-76 -16,-93 0,-93 18,1 72,48 64,56 -3,4 -15,-4 -26,-17 -25,-32 -33,-22 -19,24 7,23 16,36 24,33 33,-13 83,-16 126,-8 l 46,9 20,-53 20,-54 -37,-10 c -47,-13 -166,-13 -213,1 -43,11 -44,16 -22,102 18,70 16,105 -22,344 -15,101 -37,193 -65,275 -40,118 -41,127 -36,215 6,105 11,117 41,109 11,-4 48,-14 81,-23 z M 677,2686 c -12,-18 -26,-41 -32,-50 -8,-12 -17,-14 -39,-8 l -29,8 27,18 c 42,27 23,32 -20,5 -21,-12 -34,-17 -30,-11 8,14 115,71 133,72 8,0 4,-13 -10,-34 z m 2838,20 c 39,-11 46,-15 30,-21 -11,-4 -30,-11 -43,-16 -13,-5 -28,-7 -33,-4 -5,4 -9,1 -9,-6 0,-7 -2,-10 -5,-7 -4,4 4,69 9,68 0,-1 24,-7 51,-14 z m -2472,-66 c 6,-11 19,-20 28,-20 8,0 25,-17 37,-38 l 22,-39 -25,-23 c -14,-13 -27,-22 -29,-19 -16,18 -36,75 -37,106 -1,23 -3,29 -6,16 -6,-33 -15,-28 -40,23 l -22,44 29,-15 c 17,-9 36,-24 43,-35 z m 230,15 c -11,-22 -33,-45 -60,-60 l -43,-24 v 27 c 0,26 21,45 85,80 32,18 36,14 18,-23 z m 2567,-10 c 0,-25 -4,-45 -10,-45 -5,0 -10,14 -10,30 0,18 -6,33 -15,36 -20,8 -9,24 16,24 16,0 19,-7 19,-45 z M 878,2626 c 16,-18 16,-19 -1,-13 -10,4 -32,7 -48,7 -26,0 -29,3 -29,31 v 30 l 31,-18 c 17,-10 38,-27 47,-37 z m 1968,36 c 121,-8 148,-19 182,-74 26,-42 60,-143 67,-199 l 6,-44 -24,60 c -23,61 -55,121 -42,81 3,-11 8,-47 11,-80 l 6,-61 -30,81 c -15,44 -37,92 -47,105 -14,19 -16,20 -10,4 24,-63 45,-156 44,-195 l -1,-45 -11,55 -10,55 -14,-64 c -15,-73 -23,-88 -23,-45 l -1,29 -19,-36 c -19,-35 -85,-86 -159,-122 -19,-10 -35,-17 -36,-17 -1,0 0,12 3,28 l 5,27 -22,-27 c -12,-15 -36,-37 -52,-49 l -31,-22 16,31 c 27,53 18,59 -23,15 -45,-48 -78,-57 -176,-51 -63,4 -64,4 -47,-16 19,-22 6,-16 -43,19 -16,12 -37,26 -45,30 -13,8 -13,7 0,-10 13,-17 12,-17 -15,2 -16,11 -63,42 -103,68 -86,57 -136,109 -168,179 -32,68 -31,100 4,124 48,34 154,70 240,81 56,7 107,22 159,46 80,37 103,41 133,25 15,-8 27,-5 52,10 25,16 43,19 73,15 22,-3 90,-9 151,-13 z m 942,6 c 5,-7 13,-28 17,-45 l 7,-33 h -129 c -325,1 -274,73 63,89 17,0 36,-5 42,-11 z M 910,2590 c -9,-5 -4,-12 16,-21 39,-20 42,-39 6,-39 -58,0 -112,31 -112,66 0,3 18,4 40,1 23,-3 40,-1 40,5 0,5 5,6 11,2 8,-5 8,-9 -1,-14 z m 2760,-23 c 70,0 145,5 170,12 25,7 54,15 65,18 16,4 17,3 8,-7 -21,-23 -127,-40 -253,-41 -102,-1 -118,-3 -90,-11 19,-5 81,-8 138,-6 56,2 102,0 102,-3 0,-13 -42,-144 -50,-154 -20,-26 -41,-123 -55,-250 -8,-77 -17,-155 -20,-172 -4,-25 -2,-33 8,-33 16,0 21,24 37,195 17,178 23,205 50,198 15,-4 17,-8 8,-23 -15,-24 -4,-48 24,-52 15,-2 21,-9 19,-18 -2,-8 -14,-73 -27,-145 -12,-71 -25,-137 -29,-146 -9,-24 -50,-39 -105,-39 -78,0 -77,-2 -101,225 -6,61 -22,152 -36,204 -13,52 -21,101 -19,108 3,8 2,12 -3,9 -8,-5 -20,26 -45,115 l -13,46 46,-14 c 30,-10 90,-15 171,-16 z m -2459,-42 c -17,-20 -31,-47 -31,-60 0,-26 -32,-50 -55,-41 -8,3 -16,0 -19,-7 -2,-7 -5,-2 -5,10 -1,26 39,76 93,115 50,36 58,29 17,-17 z m 2689,23 c 0,-6 -7,-38 -16,-70 -13,-44 -25,-66 -49,-84 -18,-13 -34,-24 -36,-24 -3,0 5,39 17,87 18,74 25,89 45,94 36,10 39,10 39,-3 z m 120,-73 c 0,-23 -6,-50 -14,-61 -14,-18 -16,-18 -33,-1 -17,17 -18,16 -29,-15 -12,-37 -45,-57 -107,-66 -53,-7 -43,7 38,53 73,40 117,91 119,135 1,27 2,28 14,13 6,-9 12,-35 12,-58 z m -620,29 c 0,-8 -4,-14 -9,-14 -5,0 -24,-3 -42,-6 l -34,-6 34,25 c 35,27 51,27 51,1 z m -2419,-3 c 10,-1 39,-78 39,-101 0,-21 -20,-28 -21,-7 0,6 -4,4 -7,-5 -6,-14 -17,-3 -54,51 l -46,69 41,-3 c 23,-2 45,-4 48,-4 z m 56,-28 c -3,-10 -5,-4 -5,12 0,17 2,24 5,18 2,-7 2,-21 0,-30 z m -262,-56 40,-12 -40,-6 -40,-6 43,-2 c 46,-1 90,-19 112,-46 11,-13 6,-12 -21,3 -19,11 -60,25 -93,31 -32,6 -64,16 -71,21 -7,6 -37,14 -66,18 -53,6 -53,6 -19,13 41,8 99,3 155,-14 z m 2653,-5 c 3,-9 -2,-13 -14,-10 -9,1 -19,9 -22,16 -3,9 2,13 14,10 9,-1 19,-9 22,-16 z M 635,2401 c -3,-5 7,-12 22,-14 16,-2 -8,-5 -51,-6 -85,-1 -95,9 -18,20 26,3 48,7 50,8 2,0 1,-3 -3,-8 z m 566,-40 -6,-44 -91,-23 c -121,-29 -170,-52 -232,-108 -29,-25 -58,-46 -65,-46 -7,0 -30,-12 -51,-26 l -38,-26 7,23 c 26,87 80,136 230,205 63,29 245,95 251,90 1,-1 -1,-21 -5,-45 z m -661,-11 c -77,-19 -107,-20 -48,-2 47,15 70,20 98,20 14,0 -9,-8 -50,-18 z m 3444,-35 c -26,-20 -122,-48 -140,-41 -24,9 -9,21 55,45 32,12 65,28 72,37 12,15 14,14 23,-5 7,-17 5,-25 -10,-36 z m -518,-36 c 21,-94 66,-390 61,-403 -3,-8 -63,-16 -203,-25 -216,-13 -383,-42 -530,-91 -54,-18 -81,-24 -69,-14 32,24 164,61 370,104 218,45 195,52 -64,20 -90,-11 -166,-19 -168,-17 -2,2 33,30 77,63 44,32 80,59 80,61 0,6 -117,-49 -162,-77 -42,-26 -35,-17 52,66 55,53 99,99 96,101 -8,9 -115,-68 -205,-147 -110,-98 -106,-83 15,54 101,114 214,207 311,256 66,33 298,111 317,106 5,-1 15,-27 22,-57 z m -2961,32 c -87,-31 -101,-35 -89,-21 12,12 96,38 124,38 8,0 -7,-7 -35,-17 z m 695,-80 c 0,-38 -1,-39 -46,-50 -56,-14 -115,-43 -134,-65 -9,-12 3,-9 41,9 52,24 119,34 119,17 0,-4 -20,-14 -45,-21 -58,-17 -53,-24 8,-12 30,5 44,5 41,-1 -4,-6 4,-24 16,-40 l 23,-31 -32,6 c -17,4 -31,2 -31,-2 0,-18 67,-49 195,-91 72,-24 161,-56 200,-72 73,-30 229,-118 222,-124 -2,-3 -26,5 -53,16 -60,26 -249,80 -278,80 -12,0 38,-20 109,-44 161,-53 286,-109 435,-194 63,-36 161,-88 218,-115 57,-27 101,-51 99,-53 -7,-8 -368,36 -470,56 -266,54 -739,182 -831,226 -120,57 -207,169 -205,263 l 1,46 8,-53 c 15,-99 97,-184 232,-240 137,-57 790,-228 841,-220 12,2 -81,34 -208,71 -126,38 -312,93 -412,122 -208,62 -270,90 -331,149 -171,163 -88,343 183,399 39,8 73,12 78,10 4,-2 7,-21 7,-42 z m -526,-5 c -22,-12 -54,-33 -70,-45 -37,-27 -161,-67 -143,-45 6,8 18,14 26,14 8,0 12,4 9,9 -7,11 19,33 64,56 47,24 79,33 120,34 l 35,1 z m 3434,-2 c 92,-38 152,-121 152,-210 -1,-123 -95,-213 -292,-280 l -68,-23 v 23 c 0,12 -5,27 -11,33 -7,7 4,12 38,17 45,6 161,52 152,60 -2,3 -40,-6 -84,-19 -140,-40 -145,-40 -145,-12 0,24 43,71 115,125 l 30,22 -30,-12 c -16,-6 -39,-19 -49,-27 -17,-14 -18,-14 -11,-1 39,68 70,91 165,121 66,21 38,24 -42,5 -32,-7 -58,-13 -58,-12 0,1 9,27 20,59 11,31 25,80 31,108 12,55 11,54 87,23 z m -147,-86 c -18,-53 -61,-143 -47,-98 25,81 59,170 63,166 3,-2 -5,-33 -16,-68 z m -3289,25 c -11,-16 -31,-53 -46,-84 -30,-64 -64,-103 -52,-59 21,73 41,112 72,140 43,37 51,38 26,3 z m -163,-47 c -2,-2 -28,-21 -57,-41 -43,-29 -51,-32 -42,-15 6,12 30,30 53,41 42,19 54,23 46,15 z m 41,-96 c -23,-94 -40,-140 -50,-140 -10,0 -3,58 12,110 12,41 48,114 53,108 2,-2 -5,-37 -15,-78 z m 229,43 c -27,-53 -25,-135 5,-198 58,-126 181,-186 594,-290 310,-77 454,-106 718,-145 277,-40 311,-49 369,-98 l 30,-25 -105,7 c -58,3 -134,11 -170,17 -128,20 -1018,245 -1157,293 -210,72 -341,196 -344,325 -1,44 -1,45 -10,16 -24,-75 15,-172 98,-245 119,-105 278,-163 798,-293 354,-89 496,-119 752,-161 83,-14 161,-31 173,-38 12,-7 44,-44 71,-81 51,-70 69,-78 79,-38 l 5,23 27,-21 c 37,-30 55,-26 68,15 13,38 33,41 38,6 4,-28 13,-28 39,0 31,35 45,67 52,122 6,49 7,51 46,59 22,6 139,38 260,72 121,35 310,84 420,110 420,98 547,141 654,219 44,32 108,112 98,122 -2,2 -18,-14 -36,-36 -39,-49 -134,-115 -211,-146 -81,-33 -233,-72 -639,-164 -195,-44 -412,-95 -481,-114 l -127,-34 -16,44 -16,44 h 35 c 111,0 905,164 1139,235 207,63 321,183 313,331 -2,35 -1,64 2,64 12,0 89,-87 106,-120 15,-27 19,-57 19,-130 0,-86 -3,-101 -30,-155 -38,-76 -131,-170 -222,-224 -38,-22 -71,-41 -74,-41 -2,0 -3,17 -1,38 2,22 -3,45 -12,57 -15,20 -15,20 -9,-2 15,-60 -34,-124 -126,-165 -251,-114 -651,-208 -1080,-253 -167,-18 -541,-20 -728,-4 -483,39 -871,137 -1209,305 -158,78 -246,140 -301,212 -107,141 -72,388 71,492 22,17 41,30 42,30 1,0 -7,-17 -17,-37 z m -319,-16 c 0,-2 -12,-14 -27,-28 l -28,-24 24,28 c 23,25 31,32 31,24 z m 3826,-155 c -14,-27 -43,-65 -65,-83 -40,-35 -121,-85 -121,-75 0,3 13,12 28,20 49,26 134,109 153,151 10,22 20,65 21,95 l 2,55 3,-57 c 3,-46 -1,-67 -21,-106 z m -766,-90 c 0,-4 -7,-18 -16,-30 -8,-12 -12,-22 -9,-22 4,0 0,-7 -9,-15 -11,-11 -21,-13 -41,-5 -29,11 -43,36 -27,52 17,17 102,34 102,20 z m -145,-33 c 0,-44 34,-66 130,-84 136,-27 232,-21 350,19 13,5 12,2 -5,-8 -26,-16 -53,-24 -240,-75 -215,-57 -697,-161 -750,-161 -13,0 -31,32 -65,110 -26,61 -46,112 -44,114 2,2 39,15 81,29 141,47 341,83 483,86 l 60,1 z M 4400,1461 C 4345,1356 4265,1270 4118,1160 3978,1054 3897,1011 3740,960 3299,815 2454,777 1870,876 c -344,58 -675,171 -872,297 -76,48 -191,158 -243,232 -62,89 -63,92 -9,51 27,-21 53,-44 57,-52 12,-21 121,-92 190,-124 113,-52 114,-41 1,17 -62,32 -123,66 -135,76 -13,10 10,0 51,-22 384,-203 842,-311 1447,-341 389,-20 865,32 1281,140 330,86 627,227 756,359 22,23 42,39 44,37 2,-3 -15,-41 -38,-85 z M 1833,823 c -7,-2 -19,-2 -25,0 -7,3 -2,5 12,5 14,0 19,-2 13,-5 z m 60,-10 c -7,-2 -19,-2 -25,0 -7,3 -2,5 12,5 14,0 19,-2 13,-5 z"
       id="path3" />
    <path
       d="m 2524,4195 c 22,-8 52,-23 68,-35 31,-23 39,-14 10,11 -21,18 -77,39 -101,39 -9,-1 2,-7 23,-15 z"
       id="path4" />
    <path
       d="m 2663,4140 c 0,-25 2,-35 4,-22 2,12 2,32 0,45 -2,12 -4,2 -4,-23 z"
       id="path5" />
    <path
       d="m 2690,4160 c -6,-11 -8,-20 -6,-20 3,0 10,9 16,20 6,11 8,20 6,20 -3,0 -10,-9 -16,-20 z"
       id="path6" />
    <path
       d="m 2440,4150 c -11,-7 3,-10 47,-10 34,0 72,-4 85,-9 13,-4 37,-11 53,-15 24,-6 28,-5 18,5 -7,7 -18,14 -25,15 -7,1 -33,7 -58,13 -56,13 -100,14 -120,1 z"
       id="path7" />
    <path
       d="m 2385,4120 c -14,-7 -8,-8 20,-3 22,3 42,7 44,9 9,8 -45,2 -64,-6 z"
       id="path8" />
    <path
       d="m 2335,4100 c -3,-6 1,-7 9,-4 18,7 21,14 7,14 -6,0 -13,-4 -16,-10 z"
       id="path9" />
    <path
       d="m 1902,3518 c -17,-65 -15,-150 4,-198 22,-54 27,-46 9,15 -8,26 -15,71 -14,99 l 1,51 10,-40 c 36,-149 85,-261 129,-300 l 23,-20 -21,30 c -32,47 -80,146 -94,195 -7,25 -17,83 -24,130 l -11,85 z"
       id="path10" />
    <path
       d="m 2025,3280 c 13,-48 55,-125 91,-165 l 36,-40 -27,37 c -15,21 -45,73 -67,115 -22,43 -37,67 -33,53 z"
       id="path11" />
    <path
       d="m 1649,3183 -24,-28 28,24 c 25,23 32,31 24,31 -2,0 -14,-12 -28,-27 z"
       id="path12" />
    <path
       d="m 2210,3195 c 0,-27 58,-99 127,-157 113,-95 210,-200 233,-250 23,-51 27,-34 5,20 -19,44 -84,113 -214,225 -52,45 -107,102 -123,126 -15,25 -28,41 -28,36 z"
       id="path13" />
    <path
       d="m 2357,3090 c 33,-48 173,-190 173,-176 0,21 -104,141 -165,189 l -39,32 z"
       id="path14" />
    <path
       d="m 2806,3099 c -9,-16 -55,-70 -102,-120 -46,-49 -84,-94 -84,-99 0,-4 -3,-17 -6,-27 -4,-10 6,0 21,22 15,22 53,63 84,91 31,29 69,75 85,103 30,56 32,81 2,30 z"
       id="path15" />
    <path
       d="m 2003,3075 c 24,-48 90,-132 122,-156 l 30,-23 -31,35 c -17,19 -53,63 -79,99 -56,78 -62,84 -42,45 z"
       id="path16" />
    <path
       d="m 2961,2750 c 14,-31 19,-36 19,-24 0,6 -7,19 -16,30 -14,18 -14,18 -3,-6 z"
       id="path17" />
    <path
       d="m 1840,2296 c 0,-7 173,-67 184,-63 6,2 -21,15 -59,29 -73,27 -125,41 -125,34 z"
       id="path18" />
    <path
       d="m 2120,2100 c 14,-4 34,-8 45,-8 16,0 15,2 -5,8 -14,4 -34,8 -45,8 -16,0 -15,-2 5,-8 z"
       id="path19" />
    <path
       d="m 1258,2773 c 6,-2 18,-2 25,0 6,3 1,5 -13,5 -14,0 -19,-2 -12,-5 z"
       id="path20" />
    <path
       d="m 3703,1735 c -74,-10 -109,-25 -57,-24 66,1 149,21 133,32 -2,2 -36,-2 -76,-8 z"
       id="path21" />
    <path
       d="m 3604,2470 c -47,-19 -42,-54 14,-96 l 37,-29 -32,40 c -39,47 -40,57 -10,78 25,18 22,20 -9,7 z"
       id="path22" />
    <path
       d="m 3614,2303 c 7,-17 22,-128 30,-213 2,-25 3,7 1,70 -2,63 -6,123 -10,133 -6,14 -3,16 11,11 16,-5 16,-4 4,5 -24,17 -43,14 -36,-6 z"
       id="path23" />
    <path
       d="m 3268,2230 c -31,-16 -60,-35 -63,-41 -4,-6 8,-3 26,7 18,9 63,27 99,40 58,20 61,23 30,23 -20,0 -60,-13 -92,-29 z"
       id="path24" />
    <path
       d="m 3306,2180 c -27,-11 -54,-25 -60,-31 -8,-8 -4,-8 13,1 13,7 47,20 75,30 28,10 44,19 36,19 -8,0 -37,-9 -64,-19 z"
       id="path25" />
    <path
       d="m 3358,2164 c -52,-12 -138,-49 -138,-58 0,-4 213,64 219,70 7,7 -22,3 -81,-12 z"
       id="path26" />
    <path
       d="m 3209,2123 c -13,-16 -12,-17 4,-4 9,7 17,15 17,17 0,8 -8,3 -21,-13 z"
       id="path27" />
    <path
       d="m 913,1942 c 23,-25 98,-58 152,-67 31,-5 25,-1 -28,18 -37,14 -84,35 -105,47 -35,21 -36,21 -19,2 z"
       id="path28" />
    <path
       d="m 1635,1661 c 22,-11 47,-19 55,-19 17,0 -32,22 -70,32 -14,3 -7,-3 15,-13 z"
       id="path29" />
    <path
       d="m 555,2194 c -44,-16 -68,-34 -44,-34 7,1 34,12 59,25 51,27 45,31 -15,9 z"
       id="path30" />
    <path
       d="m 3325,1355 c -296,-51 -319,-56 -215,-49 97,7 355,49 445,73 108,29 53,23 -230,-24 z"
       id="path31" />
    <path
       d="m 1860,1319 c 111,-28 286,-58 371,-64 41,-3 70,-3 64,0 -13,6 -485,85 -499,84 -6,-1 23,-10 64,-20 z"
       id="path32" />
    <path
       d="m 2328,1243 c 6,-2 18,-2 25,0 6,3 1,5 -13,5 -14,0 -19,-2 -12,-5 z"
       id="path33" />
    <path
       d="m 3116,1624 c -38,-9 -96,-28 -130,-44 -33,-17 -50,-27 -36,-23 201,54 290,82 265,82 -16,-1 -61,-7 -99,-15 z"
       id="path34" />
    <path
       d="m 3255,3975 c -67,-67 20,-171 105,-125 22,12 42,64 33,88 -22,63 -94,82 -138,37 z m 93,-11 c 28,-19 29,-57 2,-84 -24,-24 -38,-25 -68,-4 -40,28 -21,104 26,104 10,0 28,-7 40,-16 z"
       id="path35" />
    <path
       d="m 3383,3799 c -16,-16 -5,-39 17,-39 25,0 35,18 20,35 -15,18 -22,19 -37,4 z m 22,-9 c 3,-5 1,-10 -4,-10 -6,0 -11,5 -11,10 0,6 2,10 4,10 3,0 8,-4 11,-10 z"
       id="path36" />
    <path
       d="m 3385,3625 c -14,-13 -25,-33 -25,-45 0,-11 11,-32 25,-45 13,-14 34,-25 45,-25 29,0 70,44 70,74 0,28 -42,66 -72,66 -10,0 -30,-11 -43,-25 z m 85,-25 c 17,-33 -4,-62 -43,-58 -25,2 -33,8 -35,26 -6,37 5,52 37,52 20,0 34,-7 41,-20 z"
       id="path37" />
    <path
       d="m 3277,3483 c -13,-12 -7,-41 10,-47 21,-8 48,17 40,38 -7,19 -25,21 -23,4 0,-7 -3,-13 -9,-13 -5,0 -9,6 -9,13 2,14 0,15 -9,5 z"
       id="path38" />
    <path
       d="m 4210,2947 c -14,-7 -26,-21 -28,-31 -4,-17 -3,-18 19,-2 13,9 41,16 62,16 69,0 126,-45 147,-116 11,-37 10,-46 -11,-90 -13,-27 -25,-53 -27,-59 -10,-22 41,32 54,57 27,52 6,147 -42,190 -49,43 -127,59 -174,35 z"
       id="path39" />
    <path
       d="m 4642,2344 c -51,-36 -5,-122 50,-93 39,21 49,51 26,81 -20,25 -51,30 -76,12 z m 61,-26 c 6,-18 -11,-48 -27,-48 -20,0 -39,27 -32,45 7,18 52,20 59,3 z"
       id="path40" />
    <path
       d="m 4718,1904 c -4,-3 -2,-18 4,-33 14,-37 14,-179 -1,-224 -8,-24 -23,-43 -42,-52 -33,-18 -38,-35 -10,-35 37,0 79,47 90,101 24,113 -4,280 -41,243 z"
       id="path41" />
    <path
       d="m 495,1561 c -8,-14 37,-101 52,-101 17,0 17,3 -12,60 -26,52 -30,56 -40,41 z"
       id="path42" />
    <path
       d="m 4560,1463 c -7,-21 -21,-53 -32,-70 -17,-29 -18,-33 -4,-33 32,0 80,110 58,132 -6,6 -14,-3 -22,-29 z"
       id="path43" />
    <path
       d="m 4620,1468 c 0,-7 -13,-41 -30,-75 -26,-57 -27,-63 -11,-63 13,0 25,16 39,48 32,74 37,102 18,102 -9,0 -16,-6 -16,-12 z"
       id="path44" />
    <path
       d="m 485,1348 c -29,-22 -34,-78 -11,-97 25,-21 77,-16 98,9 22,27 23,49 3,77 -21,29 -60,34 -90,11 z m 73,-39 c 6,-49 -58,-65 -73,-18 -9,27 13,51 44,47 20,-2 27,-9 29,-29 z"
       id="path45" />
    <path
       d="m 4420,1141 c -52,-53 -113,-111 -135,-128 -28,-22 -37,-34 -29,-42 26,-27 274,200 274,251 0,10 -3,18 -7,17 -5,0 -51,-44 -103,-98 z"
       id="path46" />
    <path
       d="M 4350,1164 C 4267,1078 4156,997 4055,949 3850,851 3498,777 3007,729 c -70,-7 -124,-16 -120,-20 12,-10 349,8 483,26 407,54 701,147 860,273 78,61 180,166 180,184 0,28 -12,22 -60,-28 z"
       id="path47" />
    <path
       d="m 740,1180 c 0,-17 173,-120 201,-120 23,0 -13,30 -96,80 -83,50 -105,59 -105,40 z"
       id="path48" />
    <path
       d="m 820,1026 c 0,-8 7,-17 16,-20 24,-9 54,-7 54,3 0,12 -8,16 -42,25 -21,5 -28,3 -28,-8 z"
       id="path49" />
    <path
       d="m 1107,904 c -16,-17 0,-25 118,-63 226,-72 524,-123 795,-135 177,-8 124,6 -180,49 -331,46 -575,98 -711,150 -8,3 -18,2 -22,-1 z"
       id="path50" />
    <path
       d="m 4290,865 c -14,-8 -61,-29 -105,-46 -44,-18 -86,-37 -92,-42 -25,-19 -1,-26 40,-11 66,23 197,86 197,95 0,16 -16,17 -40,4 z"
       id="path51" />
  </g>
</svg>
